<svg xmlns="http://www.w3.org/2000/svg" width="142" height="62"><path d="M29.177 57.88c-.27.393-.677.641-1.22.75-1.235.248-1.98-.228-2.233-1.444l-1.803-8.608c-.48-2.29-.95-4.612-1.411-6.962a454.41 454.41 0 01-1.31-6.984c.064 1.429.14 2.89.226 4.374.083 1.49.19 3.135.32 4.939.13 1.803.292 3.837.486 6.098.198 2.265.429 4.893.699 7.877.057.522-.061.98-.35 1.368-.287.392-.687.644-1.202.763-.515.123-.986.069-1.418-.155-.432-.223-.738-.58-.918-1.072-3.334-8.712-5.058-13.05-8.63-21.69.645 2.25 1.279 4.532 1.901 6.847a518.233 518.233 0 011.808 6.872c.867 3.41 1.303 5.116 2.174 8.525.144.558.09 1.04-.155 1.447-.245.403-.637.677-1.177.821-1.224.324-1.994-.108-2.322-1.303-3.373-12.32-5.054-18.483-8.428-30.798-.187-.695-.097-1.321.285-1.872.381-.555 1.123-.98 2.214-1.264 1.094-.284 1.937-.291 2.527-.04.594.256.997.688 1.217 1.286 1.26 3.29 2.343 6.13 3.258 8.525.914 2.394 1.699 4.474 2.369 6.25a677.875 677.875 0 011.72 4.618c.486 1.314.936 2.542 1.361 3.69-.147-1.18-.291-2.477-.421-3.88a1224 1224 0 00-.482-4.958 526.92 526.92 0 01-.616-6.678c-.22-2.556-.493-5.573-.806-9.05-.069-.634.104-1.2.522-1.689.417-.49 1.227-.864 2.43-1.109 1.105-.226 1.95-.172 2.534.159.583.327.94.846 1.076 1.555 2.405 12.542 3.608 18.814 6.012 31.36.112.565.03 1.044-.237 1.432zm7.42-29.804c-.155-1.087-.41-1.865-.785-2.34-.368-.472-1.102-.63-2.196-.464-.695.104-1.04.158-1.736.266.746 4.723 1.12 7.088 1.869 11.812.677-.108 1.019-.162 1.699-.263 1.577-.238 2.26-1.102 2.049-2.617l-.9-6.394zm-.054 26.946c.093.598-.018 1.116-.339 1.544-.317.432-.76.695-1.34.792-.604.101-1.126.004-1.565-.306-.44-.302-.717-.752-.821-1.35-2.196-12.405-3.298-18.608-5.494-31.01-.126-.713.022-1.328.45-1.84.429-.51 1.062-.842 1.901-.982 1.473-.245 2.207-.36 3.68-.584 2.422-.363 4.32-.126 5.666.674 1.346.802 2.15 2.372 2.434 4.694l.87 7.182c.17 1.375.094 2.484-.215 3.323-.313.839-.879 1.54-1.693 2.117.379 1.173.717 2.2 1.023 3.078.299.878.587 1.789.864 2.728.273.94.587 2.006.936 3.2.346 1.192.763 2.676 1.25 4.45.09.252.157.497.2.738.044.242.077.436.095.58.075.634-.083 1.13-.483 1.501a2.51 2.51 0 01-1.418.659 2.412 2.412 0 01-1.404-.227c-.443-.216-.77-.644-.98-1.281a1.62 1.62 0 00-.093-.339 8.121 8.121 0 01-.19-.716 27.542 27.542 0 00-.382-1.433c-.18-.616-.41-1.433-.692-2.44a183.752 183.752 0 00-1.098-3.734c-.45-1.487-.99-3.272-1.62-5.368-.709.108-1.062.162-1.767.274.889 5.63 1.332 8.446 2.225 14.076zm13.809-.194c-.302.36-.745.568-1.325.63-.583.057-1.054-.058-1.425-.353-.371-.292-.587-.727-.652-1.3l-.241-2.2c-.065-.572.058-1.043.364-1.41.305-.368.759-.58 1.357-.641.597-.062 1.083.057 1.454.356.374.299.587.734.64 1.31l.206 2.2c.054.576-.075 1.044-.378 1.408zm19.836-.99c-.338.334-.781.504-1.332.507-1.253.015-1.893-.59-1.915-1.832-.068-3.517-.104-5.278-.173-8.795a493.876 493.876 0 01-.08-14.209c-.2 1.418-.399 2.869-.59 4.341-.19 1.48-.392 3.118-.597 4.914a453.012 453.012 0 00-.652 6.084c-.226 2.258-.486 4.886-.774 7.866-.04.522-.24.95-.594 1.278-.353.332-.792.508-1.317.53-.522.021-.976-.12-1.354-.418-.382-.299-.615-.71-.698-1.228-1.645-9.18-2.527-13.762-4.417-22.914.212 2.326.41 4.688.59 7.082.183 2.39.35 4.752.493 7.084.223 3.514.331 5.267.55 8.78.037.577-.1 1.041-.417 1.394-.313.353-.745.547-1.3.587-1.252.09-1.925-.475-2.023-1.714l-2.537-31.831c-.058-.716.147-1.314.622-1.786.472-.471 1.271-.748 2.387-.824 1.12-.076 1.947.072 2.477.432.53.36.846.86.947 1.49.623 3.464 1.159 6.459 1.609 8.982.45 2.524.832 4.713 1.155 6.581.325 1.861.602 3.485.829 4.86l.648 3.877c.072-1.188.172-2.484.302-3.891.133-1.408.277-3.064.446-4.961.17-1.9.374-4.126.634-6.674.256-2.553.547-5.566.886-9.044.05-.637.324-1.159.82-1.562.5-.4 1.361-.62 2.582-.637 1.122-.018 1.936.194 2.448.626.51.432.763 1.008.766 1.728.03 12.773.047 19.16.08 31.932 0 .576-.17 1.033-.5 1.365zm11.563-8.708c-.212-2.73-.417-5.462-.62-8.202-.2-2.74-.395-5.515-.582-8.323-.396 2.787-.81 5.562-1.235 8.32-.425 2.761-.86 5.45-1.303 8.064 1.497.043 2.243.072 3.74.14zm4.51 6.332c.034.378.052.658.055.85.004.19 0 .356-.01.496-.048.691-.296 1.192-.739 1.494-.446.302-.9.44-1.368.414-.406-.025-.813-.19-1.22-.504-.407-.31-.626-.77-.655-1.379-.116-1.602-.173-2.401-.296-4.003-1.81-.086-2.717-.119-4.528-.17-.26 1.603-.39 2.406-.641 4.011-.104.576-.356 1.001-.756 1.282-.4.28-.803.417-1.213.41-.468-.007-.9-.18-1.307-.515-.403-.334-.608-.838-.601-1.5 0-.145.007-.31.029-.501.014-.187.054-.454.115-.8 1.739-12.304 2.718-18.45 4.907-30.718.118-.634.424-1.127.928-1.49.5-.36 1.217-.526 2.132-.494.914.036 1.62.26 2.109.655.49.404.767.922.835 1.56 1.098 12.358 1.545 18.54 2.225 30.902zm14.376 4.294c-.41.314-.904.429-1.487.353-.014 0-.025-.003-.043-.003-1.246-.162-1.94-.864-2.088-2.132-.277-2.71-.544-5.173-.788-7.394a454.927 454.927 0 00-1.394-11.188c-.216-1.56-.42-3.028-.619-4.41-.165 2.45-.367 4.931-.605 7.448-.237 2.516-.475 4.996-.706 7.44-.29 3.09-.439 4.63-.73 7.72-.05.518-.252.92-.601 1.205-.35.288-.77.41-1.264.367-.525-.046-.932-.24-1.227-.583-.296-.342-.422-.77-.382-1.292 1.012-12.802 1.515-19.199 2.527-32 .054-.692.35-1.232.893-1.624.54-.389 1.253-.551 2.134-.472.915.083 1.6.335 2.053.742.453.407.716.907.795 1.494.302 2.991.551 5.609.75 7.855.2 2.246.38 4.255.55 6.03.17 1.778.306 3.406.414 4.867.112 1.469.22 2.934.32 4.403.188-2.07.4-4.097.641-6.077.237-1.976.475-3.953.717-5.933l1.314-10.882c.06-.486.29-.864.705-1.134.407-.27.918-.371 1.523-.292.576.076 1.026.299 1.354.662.327.364.457.792.392 1.278-1.768 12.892-2.65 19.34-4.414 32.235-.08.572-.324 1.011-.734 1.317zm13.669 2.83c-.662-.133-1.065-.504-1.217-1.123-.96.493-2.185.601-3.682.335a7.673 7.673 0 01-2.092-.663 4.363 4.363 0 01-1.552-1.285c-.421-.547-.712-1.228-.871-2.041-.162-.814-.162-1.779.004-2.891 1.447-9.598 2.167-14.396 3.61-23.994.3-1.97 1.07-3.388 2.337-4.24 1.264-.854 3.017-1.099 5.23-.706 2.25.4 3.78 1.227 4.576 2.444.8 1.217.987 2.804.59 4.756-.377 1.854-.564 2.779-.942 4.63-.245 1.187-1.016 1.648-2.319 1.392-1.34-.259-1.897-.979-1.674-2.17.35-1.876.526-2.812.875-4.688.248-1.332-.32-2.134-1.71-2.383-1.386-.245-2.196.31-2.423 1.649-1.62 9.587-2.433 14.378-4.057 23.965-.23 1.368.27 2.15 1.501 2.369 1.145.202 1.872-.277 2.182-1.45.565-3.018.845-4.526 1.407-7.54a29.678 29.678 0 00-.504-.093c-1.346-.248-1.911-.975-1.695-2.196.223-1.281 1.112-1.789 2.664-1.501.727.133 1.09.202 1.814.342 1.707.331 2.398 1.289 2.077 2.844-1.083 5.3-1.627 7.949-2.714 13.244-.166.818-.637 1.149-1.415.994zm18.558-26.791c.331-1.318-.155-2.146-1.461-2.466-1.275-.313-2.074.201-2.387 1.523-2.243 9.457-3.363 14.187-5.605 23.648-.32 1.35.09 2.153 1.22 2.43 1.16.284 1.912-.234 2.25-1.577l5.983-23.558zm-8.337-1.966c.86-3.953 3.48-5.479 7.837-4.41 4.384 1.077 6.03 3.65 4.96 7.553-2.563 9.374-3.848 14.065-6.411 23.443-1.07 3.899-3.47 5.31-7.232 4.389-3.734-.918-5.184-3.273-4.324-7.226 2.066-9.5 3.103-14.248 5.17-23.749zM62.545 8.582a.065.065 0 00-.068-.043A212.873 212.873 0 00.507 20.347a.735.735 0 00-.465.936.74.74 0 00.95.428A211.69 211.69 0 0163.071 9.968a.073.073 0 00.06-.104c-.208-.4-.41-.828-.586-1.282zm78.711 11.765A212.902 212.902 0 0078.389 8.503a.075.075 0 00-.068.04c-.23.399-.494.824-.796 1.26-.036.05 0 .122.061.122a211.61 211.61 0 0163.184 11.786.736.736 0 00.947-.428.736.736 0 00-.461-.936zM76.74 7.52a.015.015 0 01-.029.007c-.111-.165-.514-.727-1.281-1.296-.915-.677-2.65-2.923-3.15-3.57a24.701 24.701 0 01-1.04-1.47l-.012-.007c-.075-.022-.827-.23-1.48.018-.01.004-.017-.004-.02-.01l-.073-.206c-.003-.007 0-.014.008-.022.384-.273 1.342-.212 1.54-.136.198.076 2.056-.602 3.86.896 1.68 1.397 1.684 5.274 1.677 5.796zm-2.275-.522a.459.459 0 11.002-.918.459.459 0 01-.002.918zm-3.518-.216c-.287.407-1.302.587-1.893.047a.27.27 0 01-.076-.274.075.075 0 01.062-.05c.06-.004.122 0 .183.01.475.101 1.03.152 1.494.059a.245.245 0 01.188.032c.06.036.082.118.042.176zm-5.659.054a.442.442 0 11-.001-.883.442.442 0 01.001.883zm11.866-3.16c-.45-.965-1.07-1.808-1.746-2.373C73.774-.054 72.068.18 71.423.266a1.683 1.683 0 01-.14.018c-.415-.097-1.998-.187-1.998-.187-.893-.227-1.822-.054-2.679.493-.633.404-1.213 1-1.681 1.732-.432.67-.738 1.407-.864 2.08-.4 2.12.59 3.91 1.242 5.094a8.3 8.3 0 001.9 2.272c1.002.832 2.103 1.31 3.183 1.39.133.007.263.01.389.01.997 0 1.882-.277 2.639-.835.727-.536 1.303-1.317 1.663-2.26.313-.829.493-1.92.5-3.014.22.205.386.393.5.533-.006.018.692.781.782.716.565-.378.886-1.018.925-1.86.043-.818-.18-1.804-.63-2.773z" fill="#FFF" fill-rule="evenodd"/></svg>