<svg width="253" height="45" viewBox="0 0 253 45" fill="none" xmlns="http://www.w3.org/2000/svg">
<g clipPath="url(#clip0_70_1438)">
<path d="M113.073 23.0128C111.924 22.8061 111.405 22.2178 110.712 20.1193L104.691 2.06681C104.337 1.05727 104.046 0.70752 103.566 0.70752C103.086 0.70752 102.865 0.842655 101.866 1.50243C101.214 1.94911 100.504 2.30224 99.7566 2.55172C98.7256 2.86174 98.5052 3.07636 98.5052 3.6646C98.4942 3.88928 98.5702 4.10947 98.7171 4.27859C98.864 4.4477 99.0702 4.55248 99.2922 4.57078C99.4645 4.5618 99.6356 4.53787 99.8038 4.49924C99.983 4.46416 100.165 4.44291 100.347 4.43566C101.016 4.43566 101.567 4.95236 101.921 5.9301L96.8288 20.5008C96.2228 22.3132 95.7742 22.8379 94.6172 23.0763C93.8302 23.1797 93.6256 23.4261 93.6256 24.0223C93.6256 24.6185 94.0112 24.9285 94.8455 24.9285H99.9061C100.575 24.9285 100.961 24.6105 100.961 24.0223C100.977 23.8054 100.91 23.5905 100.773 23.422C100.637 23.2534 100.442 23.144 100.229 23.1161C99.1348 22.9412 98.82 22.663 98.82 21.8919C98.837 21.5221 98.9114 21.1574 99.0404 20.8109L99.9061 18.3705H106.061L106.848 20.7075C106.995 21.0879 107.093 21.4861 107.139 21.8919C107.148 22.1717 107.05 22.4442 106.865 22.6529C106.681 22.8616 106.424 22.9904 106.147 23.0128C105.219 23.1479 104.99 23.3228 104.99 23.9508C104.988 24.088 105.015 24.224 105.069 24.3499C105.123 24.4758 105.203 24.5887 105.304 24.6811C105.404 24.7735 105.523 24.8434 105.652 24.886C105.781 24.9287 105.918 24.9431 106.053 24.9285H112.939C113.072 24.9469 113.207 24.936 113.335 24.8967C113.464 24.8573 113.582 24.7904 113.682 24.7005C113.782 24.6107 113.862 24.5 113.916 24.376C113.97 24.2521 113.996 24.1179 113.994 23.9826C114.002 23.4182 113.719 23.1082 113.073 23.0128ZM100.677 16.1447L103.039 9.21309L105.345 16.1447H100.677Z" fill="white"/>
<path d="M130.199 18.1557C129.719 18.1557 129.656 18.2591 128.79 19.7933C127.665 21.7805 125.965 22.9729 124.304 22.9729C123.891 22.9926 123.478 22.9144 123.1 22.7447C122.721 22.5749 122.387 22.3183 122.124 21.9952C121.675 21.4387 121.55 20.771 121.55 19.3799V6.31948C121.526 5.73484 121.558 5.14927 121.644 4.57066C121.713 4.28664 121.874 4.03373 122.1 3.85117C122.326 3.66861 122.606 3.56664 122.895 3.56113C124.013 3.42599 124.241 3.25111 124.241 2.59133C124.253 2.46478 124.238 2.3371 124.195 2.21736C124.153 2.09762 124.085 1.98873 123.996 1.89845C123.908 1.80818 123.801 1.73871 123.682 1.69497C123.564 1.65123 123.438 1.63431 123.312 1.64539H116.229C116.104 1.63431 115.978 1.65123 115.859 1.69497C115.741 1.73871 115.634 1.80818 115.545 1.89845C115.457 1.98873 115.389 2.09762 115.346 2.21736C115.304 2.3371 115.288 2.46478 115.3 2.59133C115.281 2.79984 115.343 3.00781 115.474 3.17005C115.605 3.3323 115.795 3.4357 116.001 3.45779C117.032 3.63267 117.252 3.73602 117.575 4.18912C117.898 4.64222 117.827 4.92043 117.827 6.31948V20.2225C117.827 22.3847 117.607 22.8378 116.481 23.0126C115.552 23.1478 115.332 23.3227 115.332 23.9506C115.32 24.0772 115.336 24.2049 115.378 24.3246C115.42 24.4443 115.488 24.5532 115.577 24.6435C115.665 24.7338 115.773 24.8033 115.891 24.847C116.009 24.8907 116.135 24.9077 116.261 24.8966H126.492C127.2 24.8966 127.389 24.9999 127.492 25.4848C127.618 26.2161 127.806 26.4308 128.326 26.4308C128.845 26.4308 129.113 26.0413 129.318 25.3815L130.947 19.4912C130.999 19.3096 131.033 19.1232 131.049 18.9347C131.047 18.8261 131.023 18.719 130.979 18.6201C130.935 18.5211 130.871 18.4324 130.791 18.3594C130.711 18.2864 130.618 18.2307 130.516 18.1956C130.414 18.1606 130.306 18.147 130.199 18.1557Z" fill="white"/>
<path d="M68.1099 14.0064H61.2234C60.3891 14.0064 60.0114 14.2846 60.0114 14.9523C60.0114 15.62 60.3262 15.8188 61.2234 15.8903C61.5638 15.9056 61.8975 15.9913 62.2037 16.1423C62.5099 16.2932 62.7822 16.5061 63.0036 16.7677C63.225 17.0293 63.3908 17.3341 63.4907 17.6632C63.5906 17.9922 63.6226 18.3384 63.5845 18.6804C63.5849 19.1788 63.4855 19.6722 63.2923 20.1308C63.0991 20.5894 62.8161 21.0037 62.4603 21.349C62.1044 21.6943 61.6832 21.9634 61.2217 22.14C60.7603 22.3166 60.2683 22.3972 59.7753 22.3768C58.0123 22.3768 56.3438 21.2957 55.0531 19.3402C53.7635 17.1411 53.1295 14.6128 53.2271 12.0588C53.2271 6.72497 55.5331 3.2035 59.0197 3.2035C61.2942 3.2035 63.0572 4.56282 64.4345 7.4245C64.7572 8.11608 65.0484 8.39427 65.434 8.39427C65.6428 8.39427 65.8429 8.31054 65.9905 8.16146C66.1381 8.01239 66.2211 7.81019 66.2211 7.59936C66.2229 7.37327 66.191 7.14818 66.1266 6.93164L64.3636 1.04133C64.1433 0.34976 63.8206 0 63.4035 0C63.1842 0.00203143 62.9743 0.0903821 62.8185 0.246251C62.6627 0.40212 62.5733 0.613227 62.5692 0.834673C62.5887 1.10594 62.6443 1.37331 62.7345 1.62959L62.9234 2.36089C61.6676 1.59214 60.2284 1.18274 58.76 1.17648C53.3766 1.17648 49.3155 6.61367 49.3155 13.9348C49.3155 20.628 53.0933 25.469 58.3822 25.469C60.6882 25.469 62.1285 24.7774 64.0252 22.7186L65.2058 24.3561C65.6544 24.9841 65.9928 25.2305 66.2998 25.2305C66.7484 25.2305 67.0868 24.849 67.0868 24.2846V24.0779C66.9408 23.1552 66.8671 22.2222 66.8664 21.2878V18.1876C66.8664 16.5978 67.1498 16.1288 68.2752 15.8903C68.9127 15.7472 69.1724 15.469 69.1724 14.9444C69.1724 14.4197 68.8104 14.0064 68.1099 14.0064Z" fill="white"/>
<path d="M24.7365 23.0683C23.5245 22.8616 23.1624 22.3767 22.7847 20.6279L19.9671 5.85049C20.2825 5.5539 20.6869 5.37207 21.1162 5.33381C21.6671 5.33381 22.0134 5.6438 22.399 6.40692C22.6587 6.89976 22.9106 7.10644 23.2647 7.10644C23.3743 7.10689 23.4828 7.08422 23.5832 7.03988C23.6836 6.99553 23.7738 6.9305 23.8479 6.84894C23.9219 6.76737 23.9784 6.67106 24.0135 6.5662C24.0486 6.46134 24.0616 6.35024 24.0518 6.23999C24.0291 5.96919 23.9736 5.70223 23.8865 5.44508L23.0208 2.72649C22.7059 1.64541 22.2337 1.19229 21.2972 1.19229C19.8175 1.19229 18.2199 2.51186 16.2995 5.37354C14.8277 7.48013 13.6714 9.79437 12.868 12.2416C12.41 10.3453 11.7089 8.51741 10.7824 6.80437C8.83054 3.00469 6.7449 1.04921 4.63565 1.04921C4.2485 1.02774 3.86572 1.1406 3.55079 1.36904C3.23586 1.59748 3.0077 1.92779 2.90417 2.30519L1.81018 5.61996C1.70853 5.83618 1.65481 6.07219 1.65276 6.31153C1.65276 6.52236 1.73569 6.72456 1.88329 6.87363C2.03089 7.02271 2.23106 7.10644 2.4398 7.10644C2.85693 7.10644 2.98286 7.00312 3.43147 6.20026C3.72267 5.64382 4.03747 5.40534 4.4546 5.40534C4.87173 5.40534 5.24168 5.58021 5.67454 6.13665L2.88841 20.1828C2.50277 22.2018 2.18011 22.7265 1.094 23.0762C0.259743 23.2114 0.0393524 23.426 0.0393524 24.0142C0.0393524 24.6025 0.417115 24.9602 1.15693 24.9602H6.12311C7.02033 24.9602 7.40598 24.682 7.40598 24.054C7.40599 23.8045 7.30842 23.5651 7.13448 23.3879C6.96054 23.2107 6.72431 23.1101 6.47729 23.108C5.38331 22.9332 5.06851 22.6231 5.06851 21.6851C5.07039 21.3807 5.10202 21.0771 5.16295 20.7789L7.52406 8.60884C9.16969 12.0945 10.2943 15.8074 10.8611 19.6263C11.0185 21.2638 11.2703 21.7487 12.0416 21.7487C12.8129 21.7487 13.1041 21.232 13.2615 19.8727C13.7784 15.9823 14.9721 12.2147 16.7875 8.74396L18.8967 20.8108C18.9588 21.1197 18.9931 21.4336 18.999 21.7487C19.0131 21.916 18.9929 22.0844 18.9398 22.2434C18.8867 22.4025 18.8018 22.5487 18.6903 22.6732C18.5789 22.7977 18.4433 22.8978 18.2919 22.9671C18.1406 23.0364 17.9768 23.0736 17.8106 23.0762C16.8504 23.2114 16.5907 23.4181 16.5907 24.0858C16.5907 24.7535 16.9763 24.992 17.6846 24.992H24.4138C25.1458 24.992 25.5314 24.674 25.5314 24.046C25.5433 23.929 25.5322 23.8108 25.4986 23.6981C25.4651 23.5855 25.4097 23.4807 25.3358 23.3898C25.2619 23.2988 25.1709 23.2236 25.068 23.1684C24.9651 23.1133 24.8525 23.0792 24.7365 23.0683Z" fill="white"/>
<path d="M45.585 1.66923H40.0758C39.9504 1.65815 39.8241 1.67508 39.7059 1.71882C39.5877 1.76255 39.4805 1.83202 39.3919 1.9223C39.3032 2.01258 39.2353 2.12146 39.193 2.24121C39.1507 2.36095 39.135 2.48862 39.1471 2.61518C39.1406 2.82189 39.209 3.02389 39.3394 3.18337C39.4698 3.34285 39.6532 3.44888 39.8554 3.48163C40.8786 3.65651 41.0989 3.75986 41.3586 4.21296C41.6183 4.66606 41.6105 5.00787 41.6105 6.34332V17.4483C41.6105 19.2289 41.4216 20.2702 40.9415 21.0731C40.5947 21.5929 40.1255 22.0176 39.576 22.309C39.0265 22.6003 38.414 22.7493 37.7934 22.7424C37.2472 22.7508 36.7064 22.6327 36.2124 22.3971C35.7185 22.1614 35.2847 21.8145 34.9443 21.3831C34.3304 20.5882 34.0786 19.5071 34.0786 17.5198V6.31948C34.0786 4.15731 34.2989 3.70421 35.4244 3.52933C36.3216 3.38624 36.542 3.21137 36.542 2.59133C36.554 2.46478 36.5383 2.3371 36.496 2.21736C36.4537 2.09762 36.3858 1.98873 36.2972 1.89845C36.2086 1.80818 36.1014 1.73871 35.9832 1.69497C35.865 1.65123 35.7387 1.63431 35.6133 1.64539H28.8291C28.7037 1.63431 28.5774 1.65123 28.4592 1.69497C28.341 1.73871 28.2337 1.80818 28.1451 1.89845C28.0565 1.98873 27.9886 2.09762 27.9463 2.21736C27.904 2.3371 27.8883 2.46478 27.9004 2.59133C27.894 2.79805 27.9623 3.00005 28.0927 3.15952C28.2231 3.319 28.4065 3.42503 28.6087 3.45779C29.6318 3.63267 29.8522 3.73602 30.1827 4.18912C30.5133 4.64222 30.4425 4.92043 30.4425 6.31948V16.7408C30.4425 20.1509 30.6629 21.232 31.5916 22.6311C32.2434 23.5324 33.1049 24.2577 34.1 24.7429C35.0952 25.2282 36.1934 25.4584 37.2976 25.4133C38.4451 25.4672 39.5857 25.2077 40.5995 24.6622C41.6134 24.1166 42.4629 23.3051 43.0586 22.3131C43.9244 20.922 44.0581 20.151 44.0581 16.7487V6.31948C44.0581 4.15731 44.2785 3.70421 45.404 3.52933C46.3327 3.38624 46.553 3.21137 46.553 2.59133C46.5623 2.46297 46.5432 2.33414 46.497 2.21418C46.4508 2.09423 46.3787 1.98618 46.286 1.89787C46.1933 1.80957 46.0823 1.74323 45.9611 1.70368C45.8398 1.66413 45.7113 1.65236 45.585 1.66923Z" fill="white"/>
<path d="M90.5955 3.55331C91.5242 3.41022 91.7446 3.23535 91.7446 2.61532C91.7566 2.48876 91.7409 2.36109 91.6986 2.24134C91.6563 2.1216 91.5884 2.01272 91.4998 1.92244C91.4111 1.83216 91.3039 1.76269 91.1857 1.71896C91.0675 1.67522 90.9413 1.65829 90.8159 1.66937H83.9608C83.8348 1.65531 83.7072 1.67018 83.5876 1.71287C83.4681 1.75555 83.3596 1.82494 83.2703 1.91589C83.181 2.00683 83.1133 2.11699 83.072 2.23809C83.0308 2.3592 83.0171 2.48814 83.0321 2.61532C83.0124 2.82507 83.0759 3.03414 83.2087 3.19661C83.3415 3.35908 83.5327 3.46164 83.7404 3.48177C84.7635 3.65665 84.9839 3.76 85.2437 4.2131C85.5034 4.6662 85.5034 5.00801 85.5034 6.34346V11.3276H77.9715V6.31961C77.9715 4.15745 78.1918 3.70434 79.3173 3.52946C80.2145 3.38638 80.4349 3.2115 80.4349 2.59147C80.4499 2.46429 80.4362 2.33535 80.395 2.21425C80.3537 2.09314 80.2859 1.98299 80.1966 1.89204C80.1073 1.8011 79.9989 1.73171 79.8793 1.68902C79.7598 1.64633 79.6322 1.63146 79.5062 1.64552H72.6511C72.5257 1.63444 72.3994 1.65137 72.2812 1.69511C72.163 1.73885 72.0559 1.80831 71.9672 1.89859C71.8786 1.98887 71.8107 2.09775 71.7684 2.2175C71.7261 2.33724 71.7104 2.46492 71.7224 2.59147C71.7027 2.80122 71.7662 3.01029 71.899 3.17276C72.0318 3.33523 72.2231 3.4378 72.4307 3.45792C73.4539 3.6328 73.6742 3.73615 73.9655 4.18925C74.2567 4.64235 74.2252 4.92057 74.2252 6.31961V20.2226C74.2252 22.3848 73.9969 22.8379 72.8793 23.0128C71.9506 23.1479 71.7224 23.3228 71.7224 23.9508C71.7104 24.0773 71.7261 24.205 71.7684 24.3247C71.8107 24.4445 71.8786 24.5534 71.9672 24.6436C72.0559 24.7339 72.163 24.8034 72.2812 24.8471C72.3994 24.8909 72.5257 24.9078 72.6511 24.8967H79.5062C79.6322 24.9108 79.7598 24.8959 79.8793 24.8532C79.9989 24.8106 80.1073 24.7411 80.1966 24.6502C80.2859 24.5593 80.3537 24.4491 80.395 24.328C80.4362 24.2069 80.4499 24.0779 80.4349 23.9508C80.445 23.7444 80.379 23.5415 80.2496 23.3815C80.1202 23.2214 79.9367 23.1155 79.7344 23.0843C78.7113 22.9094 78.4831 22.8061 78.2233 22.353C77.9636 21.8999 77.9715 21.6217 77.9715 20.2226V13.601H85.5034V20.2226C85.5034 22.3848 85.2751 22.8379 84.1575 23.0128C83.2603 23.1479 83.0321 23.3228 83.0321 23.9508C83.0171 24.0779 83.0308 24.2069 83.072 24.328C83.1133 24.4491 83.181 24.5593 83.2703 24.6502C83.3596 24.7411 83.4681 24.8106 83.5876 24.8532C83.7072 24.8959 83.8348 24.9108 83.9608 24.8967H90.8473C90.9727 24.9078 91.099 24.8909 91.2172 24.8471C91.3354 24.8034 91.4426 24.7339 91.5312 24.6436C91.6199 24.5534 91.6878 24.4445 91.7301 24.3247C91.7724 24.205 91.7881 24.0773 91.776 23.9508C91.7862 23.7444 91.7202 23.5415 91.5908 23.3815C91.4614 23.2214 91.2778 23.1155 91.0756 23.0843C90.0524 22.9094 89.8242 22.8061 89.5015 22.353C89.1788 21.8999 89.2496 21.6217 89.2496 20.2226V6.31961C89.2732 4.1813 89.47 3.72819 90.5955 3.55331Z" fill="white"/>
<path d="M154.904 18.6486C154.518 18.6486 154.259 18.8951 153.849 19.6582C152.692 21.8203 151.055 22.973 149.127 22.973C148.574 23.0029 148.024 22.8682 147.545 22.5857C147.067 22.3031 146.681 21.885 146.436 21.3831C146.144 20.7552 146.081 20.2305 146.081 18.5215V13.3148H147.844C149.639 13.3148 150.568 13.7679 151.213 14.9523C151.756 16.0016 151.85 16.0731 152.267 16.0731C152.375 16.0796 152.482 16.0639 152.583 16.0269C152.684 15.9899 152.777 15.9323 152.855 15.8579C152.933 15.7834 152.995 15.6935 153.038 15.5938C153.08 15.4941 153.102 15.3867 153.102 15.2782C153.081 14.9818 153.028 14.6887 152.944 14.4038L151.449 9.7615C151.229 9.03018 151 8.75197 150.552 8.75197C149.946 8.75197 149.686 9.10172 149.718 9.93638C149.718 11.0175 149.34 11.2957 147.923 11.2957H146.034V3.62478H146.821C148.836 3.62478 149.773 3.76786 150.568 4.22096C151.351 4.67068 151.977 5.35361 152.362 6.17646C152.779 6.97137 152.976 7.18599 153.393 7.18599C153.5 7.18619 153.607 7.16417 153.705 7.12127C153.804 7.07837 153.893 7.01551 153.967 6.93656C154.041 6.85762 154.098 6.76426 154.134 6.66224C154.171 6.56023 154.186 6.45172 154.18 6.34339C154.181 6.10692 154.139 5.87232 154.054 5.65182L152.614 0.882342C152.417 0.294106 152.134 0.0158899 151.685 0.0158899C151.492 0.0144793 151.305 0.0850167 151.159 0.214036C151.014 0.343055 150.921 0.52153 150.898 0.715417C150.804 1.51033 150.741 1.58187 149.71 1.58187H140.706C140.477 1.57871 140.254 1.66133 140.082 1.81383C139.909 1.96633 139.799 2.17792 139.771 2.40786C139.744 2.6378 139.802 2.86983 139.934 3.05928C140.066 3.24873 140.262 3.38221 140.486 3.434C141.509 3.56914 141.737 3.67247 142.02 4.12557C142.304 4.57867 142.28 4.92051 142.28 6.25596V20.159C142.28 22.3211 142.052 22.7742 140.934 22.9491C140.006 23.0843 139.777 23.2591 139.777 23.8871C139.765 24.0137 139.781 24.1413 139.823 24.2611C139.866 24.3808 139.933 24.4897 140.022 24.58C140.111 24.6703 140.218 24.7397 140.336 24.7835C140.454 24.8272 140.581 24.8441 140.706 24.8331H150.804C152.118 24.8331 152.275 24.8966 152.378 25.5644C152.48 26.2321 152.763 26.3593 153.212 26.3593C153.427 26.3533 153.632 26.2698 153.791 26.124C153.95 25.9781 154.051 25.7796 154.078 25.5644L155.424 20.62C155.571 20.2387 155.659 19.8364 155.683 19.4276C155.679 19.221 155.595 19.024 155.45 18.8786C155.305 18.7331 155.109 18.6507 154.904 18.6486Z" fill="white"/>
<path d="M212.57 3.48977C213.499 3.34669 213.719 3.17182 213.719 2.55178C213.731 2.42523 213.715 2.29753 213.673 2.17779C213.631 2.05804 213.563 1.94918 213.474 1.8589C213.386 1.76862 213.278 1.69916 213.16 1.65542C213.042 1.61168 212.916 1.59476 212.79 1.60584H205.904C205.778 1.59476 205.652 1.61168 205.534 1.65542C205.416 1.69916 205.309 1.76862 205.22 1.8589C205.131 1.94918 205.063 2.05804 205.021 2.17779C204.979 2.29753 204.963 2.42523 204.975 2.55178C204.967 2.75775 205.033 2.95967 205.163 3.11934C205.292 3.27901 205.474 3.38535 205.676 3.41824C206.707 3.59312 206.927 3.69644 207.25 4.14954C207.572 4.60264 207.502 4.88088 207.502 6.27993V20.1829C207.502 22.3451 207.281 22.7982 206.156 22.9731C205.227 23.1082 205.007 23.2831 205.007 23.9111C204.995 24.0376 205.01 24.1653 205.053 24.2851C205.095 24.4048 205.163 24.5137 205.251 24.604C205.34 24.6942 205.447 24.7637 205.565 24.8074C205.684 24.8512 205.81 24.8681 205.935 24.857H212.822C212.947 24.8681 213.074 24.8512 213.192 24.8074C213.31 24.7637 213.417 24.6942 213.506 24.604C213.594 24.5137 213.662 24.4048 213.705 24.2851C213.747 24.1653 213.763 24.0376 213.751 23.9111C213.761 23.7047 213.695 23.5019 213.565 23.3418C213.436 23.1817 213.252 23.0759 213.05 23.0446C212.019 22.8697 211.799 22.7664 211.476 22.3133C211.153 21.8602 211.224 21.582 211.224 20.1829V6.31966C211.264 4.11775 211.445 3.66466 212.57 3.48977Z" fill="white"/>
<path d="M252.189 18.6485C251.804 18.6485 251.552 18.8949 251.135 19.6581C249.978 21.8202 248.349 22.9728 246.413 22.9728C245.859 23.0018 245.31 22.8667 244.831 22.5842C244.353 22.3017 243.967 21.8842 243.721 21.383C243.438 20.755 243.375 20.2304 243.375 18.5213V13.3146H245.106C246.893 13.3146 247.829 13.7677 248.467 14.9522C249.01 16.0014 249.104 16.073 249.521 16.073C249.629 16.0795 249.736 16.0638 249.837 16.0268C249.938 15.9897 250.03 15.9322 250.109 15.8577C250.187 15.7833 250.249 15.6934 250.291 15.5937C250.334 15.494 250.356 15.3866 250.356 15.2781C250.335 14.9817 250.282 14.6886 250.198 14.4037L248.758 9.76934C248.53 9.03802 248.309 8.75981 247.861 8.75981C247.247 8.75981 246.995 9.10956 247.026 9.94422C247.026 11.0253 246.641 11.3035 245.232 11.3035H243.343V3.63261H244.13C246.153 3.63261 247.082 3.7757 247.884 4.2288C248.666 4.68095 249.292 5.36316 249.679 6.18428C250.096 6.97919 250.285 7.19383 250.702 7.19383C250.809 7.19402 250.916 7.17198 251.014 7.12908C251.113 7.08619 251.202 7.02334 251.276 6.9444C251.349 6.86546 251.406 6.7721 251.443 6.67008C251.48 6.56806 251.495 6.45956 251.489 6.35122C251.491 6.11392 251.446 5.87862 251.355 5.65965L249.915 0.890178C249.726 0.301943 249.435 0.0237024 248.986 0.0237024C248.793 0.0222918 248.606 0.0928292 248.46 0.221848C248.315 0.350867 248.222 0.529342 248.199 0.723229C248.105 1.51814 248.042 1.58968 247.019 1.58968H238.023C237.793 1.58437 237.569 1.66552 237.395 1.81737C237.221 1.96922 237.108 2.18097 237.08 2.41159C237.052 2.64222 237.109 2.87527 237.241 3.06561C237.373 3.25595 237.57 3.39003 237.795 3.44184C238.826 3.57698 239.046 3.68031 239.369 4.13341C239.691 4.58651 239.62 4.92832 239.62 6.26377V20.1668C239.62 22.329 239.4 22.7821 238.275 22.9569C237.346 23.0921 237.126 23.2669 237.126 23.8949C237.113 24.0215 237.129 24.1492 237.171 24.2689C237.214 24.3887 237.282 24.4975 237.37 24.5878C237.459 24.6781 237.566 24.7476 237.684 24.7913C237.803 24.835 237.929 24.852 238.054 24.8409H248.097C249.411 24.8409 249.569 24.9045 249.671 25.5722C249.773 26.2399 250.056 26.3671 250.505 26.3671C250.718 26.3593 250.922 26.2749 251.079 26.1293C251.236 25.9836 251.337 25.7861 251.363 25.5722L252.709 20.6278C252.856 20.2465 252.944 19.8442 252.969 19.4355C252.966 19.2274 252.884 19.0284 252.738 18.8813C252.592 18.7342 252.395 18.6506 252.189 18.6485Z" fill="white"/>
<path d="M233.426 23.0127C232.466 22.7027 232.081 22.3847 230.9 20.787L227.311 15.5246C228.232 15.255 229.116 14.8677 229.94 14.372C230.859 13.765 231.609 12.9307 232.118 11.9484C232.628 10.9662 232.881 9.86855 232.852 8.75993C232.86 6.87028 232.15 5.04955 230.869 3.67249C229.428 2.17011 227.72 1.61365 224.454 1.61365H217.371C217.246 1.60257 217.119 1.6195 217.001 1.66323C216.883 1.70697 216.776 1.77646 216.687 1.86674C216.598 1.95702 216.531 2.06588 216.488 2.18562C216.446 2.30537 216.43 2.43304 216.442 2.5596C216.422 2.7681 216.485 2.97609 216.616 3.13834C216.747 3.30058 216.936 3.40397 217.143 3.42605C218.174 3.60093 218.394 3.70428 218.717 4.15738C219.039 4.61048 218.969 4.88869 218.969 6.28774V20.1908C218.969 22.3529 218.748 22.806 217.623 22.9809C216.694 23.116 216.474 23.2909 216.474 23.9189C216.462 24.0455 216.477 24.1731 216.52 24.2929C216.562 24.4126 216.63 24.5215 216.719 24.6118C216.807 24.7021 216.914 24.7715 217.033 24.8153C217.151 24.859 217.277 24.8759 217.402 24.8648H224.289C224.516 24.8705 224.738 24.7895 224.909 24.6379C225.079 24.4862 225.188 24.2752 225.211 24.0467C225.235 23.8182 225.173 23.589 225.037 23.4048C224.901 23.2205 224.701 23.0947 224.478 23.0524C223.455 22.8776 223.234 22.7742 222.975 22.3211C222.715 21.868 222.723 21.5898 222.723 20.1908V3.593H223.714C225.375 3.593 226.406 3.97455 227.24 4.88075C228.265 6.05443 228.826 7.56861 228.814 9.13354C228.859 10.4192 228.449 11.6788 227.658 12.6868C227.02 13.4817 226.351 13.8076 224.84 14.221C223.911 14.4674 223.494 14.9205 223.494 15.6916C223.506 16.169 223.687 16.6261 224.006 16.9793L227.154 21.6852C227.391 21.9459 227.571 22.254 227.682 22.5896C227.793 22.9251 227.833 23.2805 227.799 23.6327C227.799 24.4674 228.153 24.8569 228.98 24.8569H233.434C234.174 24.8569 234.497 24.5787 234.497 23.9507C234.497 23.3227 234.229 23.2194 233.426 23.0127Z" fill="white"/>
<path d="M182.198 23.0128C180.979 22.8061 180.624 22.3212 180.239 20.5724L177.421 5.78699C177.739 5.48878 178.146 5.30684 178.578 5.2703C179.121 5.2703 179.475 5.58033 179.861 6.34344C180.113 6.83629 180.373 7.04297 180.727 7.04297C180.836 7.04342 180.945 7.02075 181.045 6.9764C181.146 6.93206 181.236 6.867 181.31 6.78544C181.384 6.70387 181.44 6.60758 181.475 6.50272C181.511 6.39787 181.524 6.28676 181.514 6.17652C181.491 5.90645 181.438 5.63983 181.356 5.3816L180.491 2.66299C180.168 1.58191 179.656 1.12882 178.759 1.12882C177.287 1.12882 175.682 2.44838 173.761 5.31006C172.292 7.41831 171.136 9.73211 170.33 12.1781C169.871 10.2832 169.173 8.45579 168.252 6.7409C166.3 2.94122 164.215 0.985738 162.098 0.985738C161.71 0.964268 161.328 1.0771 161.013 1.30554C160.698 1.53398 160.47 1.86429 160.366 2.24169L159.256 5.52468C159.155 5.7409 159.101 5.97691 159.099 6.21625C159.099 6.42708 159.182 6.62928 159.329 6.77835C159.477 6.92743 159.677 7.01116 159.886 7.01116C160.303 7.01116 160.437 6.90784 160.886 6.10498C161.169 5.54854 161.492 5.31006 161.909 5.31006C162.326 5.31006 162.696 5.48493 163.129 6.04137L160.335 20.0875C159.957 22.1066 159.634 22.6312 158.54 22.981C157.753 23.1161 157.486 23.3307 157.486 23.919C157.486 24.5072 157.871 24.8649 158.611 24.8649H163.577C164.474 24.8649 164.852 24.5867 164.852 23.9587C164.853 23.8349 164.83 23.712 164.784 23.5973C164.738 23.4826 164.669 23.3782 164.583 23.2903C164.497 23.2024 164.394 23.1325 164.281 23.0849C164.168 23.0373 164.046 23.0128 163.923 23.0128C162.837 22.8379 162.515 22.5279 162.515 21.5899C162.517 21.2854 162.548 20.9819 162.609 20.6837L164.97 8.51356C166.613 11.9995 167.735 15.7124 168.299 19.531C168.457 21.1686 168.717 21.6535 169.488 21.6535C170.259 21.6535 170.542 21.1368 170.7 19.7775C171.22 15.8878 172.414 12.1209 174.226 8.64868L176.343 20.7155C176.399 21.0251 176.431 21.3388 176.437 21.6535C176.451 21.8207 176.431 21.9891 176.378 22.1481C176.325 22.3072 176.24 22.4535 176.129 22.578C176.017 22.7025 175.882 22.8025 175.73 22.8718C175.579 22.9411 175.415 22.9783 175.249 22.981C174.289 23.1161 174.037 23.3228 174.037 23.9905C174.037 24.6582 174.423 24.8967 175.123 24.8967H181.852C182.592 24.8967 182.978 24.5787 182.978 23.9508C182.991 23.7234 182.918 23.4995 182.773 23.325C182.628 23.1505 182.422 23.0388 182.198 23.0128Z" fill="white"/>
<path d="M193.854 1.60584H186.771C186.646 1.59476 186.519 1.61168 186.401 1.65542C186.283 1.69916 186.176 1.76862 186.087 1.8589C185.999 1.94918 185.931 2.05804 185.888 2.17779C185.846 2.29753 185.83 2.42523 185.842 2.55178C185.836 2.7585 185.904 2.96047 186.035 3.11995C186.165 3.27943 186.349 3.38548 186.551 3.41824C187.574 3.59312 187.802 3.66466 188.085 4.11776C188.369 4.57086 188.345 4.91268 188.345 6.27993V20.1829C188.345 22.3451 188.117 22.7982 186.999 22.9731C186.071 23.1082 185.842 23.2831 185.842 23.9111C185.83 24.0376 185.846 24.1653 185.888 24.2851C185.931 24.4048 185.999 24.5137 186.087 24.604C186.176 24.6942 186.283 24.7637 186.401 24.8074C186.519 24.8512 186.646 24.8681 186.771 24.857H193.854C193.98 24.8681 194.106 24.8512 194.224 24.8074C194.342 24.7637 194.45 24.6942 194.538 24.604C194.627 24.5137 194.695 24.4048 194.737 24.2851C194.779 24.1653 194.795 24.0376 194.783 23.9111C194.803 23.7026 194.74 23.4946 194.609 23.3324C194.478 23.1701 194.289 23.0667 194.083 23.0446C192.351 22.9413 192.028 22.4882 192.06 20.326C192.068 20.2787 192.068 20.2302 192.06 20.1829V19.9365C192.06 18.1241 192.642 17.5518 194.98 17.1146C196.309 16.9802 197.596 16.5659 198.758 15.8983C199.788 15.1881 200.626 14.2294 201.196 13.1092C201.767 11.989 202.051 10.7428 202.024 9.48342C202.02 7.55165 201.405 5.67166 200.269 4.11776C198.884 2.23382 197.286 1.60584 193.854 1.60584ZM196.806 13.5295C196.11 14.228 195.23 14.7108 194.271 14.9206C193.496 15.1063 192.759 15.4264 192.091 15.8666V3.56131H192.926C193.901 3.47747 194.88 3.68182 195.743 4.14954C197.152 5.09549 198.104 7.14638 198.104 9.41188C198.168 10.9062 197.708 12.3754 196.806 13.5613V13.5295Z" fill="white"/>
<path d="M69.2748 44.5309C68.8891 44.5309 68.653 44.3242 68.653 43.9824C68.653 43.6406 68.8025 43.5134 69.44 43.4339C70.2271 43.3306 70.3451 43.0683 70.3451 41.8441V33.7201C70.3451 32.9252 70.3451 32.7026 70.172 32.48C69.9988 32.2575 69.8257 32.1541 69.1331 32.0508C69.0064 32.0428 68.8873 31.9868 68.7998 31.8939C68.7122 31.801 68.6626 31.6782 68.6609 31.55C68.6609 31.2002 68.897 31.0015 69.2826 31.0015H73.9419C74.3275 31.0015 74.5636 31.2002 74.5636 31.55C74.5636 31.8997 74.4141 32.0111 73.7766 32.0905C72.9896 32.1939 72.8715 32.4562 72.8715 33.7201V41.8123C72.8715 42.6072 72.8715 42.8219 73.0446 43.0444C73.2178 43.267 73.3909 43.3703 74.0835 43.4737C74.2109 43.4836 74.3301 43.5413 74.4174 43.6355C74.5048 43.7296 74.5542 43.8534 74.5557 43.9824C74.5557 44.3242 74.3196 44.5309 73.934 44.5309H69.2748ZM78.4201 36.7805C79.233 36.0734 80.2672 35.6792 81.34 35.6677C81.7576 35.6461 82.175 35.7159 82.5635 35.8723C82.952 36.0287 83.3025 36.268 83.5909 36.5738C83.8305 36.833 84.0127 37.1407 84.1253 37.4765C84.2379 37.8123 84.2784 38.1685 84.2441 38.5214V42.0905C84.2441 43.2273 84.3543 43.4101 85.2358 43.5532C85.5427 43.6088 85.7159 43.7758 85.7159 44.054C85.7142 44.1251 85.6978 44.1952 85.6677 44.2595C85.6376 44.3239 85.5944 44.3811 85.541 44.4276C85.4876 44.474 85.4251 44.5087 85.3576 44.5292C85.2901 44.5497 85.2192 44.5557 85.1492 44.5468H81.277C81.2075 44.5558 81.1368 44.5498 81.0698 44.5292C81.0027 44.5086 80.9407 44.4739 80.8879 44.4273C80.8351 44.3807 80.7927 44.3234 80.7634 44.259C80.7342 44.1947 80.7188 44.1248 80.7182 44.054C80.7182 43.7122 80.8442 43.6088 81.4266 43.5134C82.009 43.418 82.2136 43.1239 82.2136 42.0905V39.1493C82.2136 37.798 81.6233 37.0667 80.4978 37.0667C80.2129 37.0657 79.9309 37.1245 79.6696 37.2395C79.4084 37.3546 79.1737 37.5232 78.9806 37.7348C78.7874 37.9464 78.6398 38.1963 78.5474 38.4685C78.455 38.7408 78.4197 39.0295 78.4437 39.3163V42.0905C78.4437 43.2273 78.5539 43.4101 79.4432 43.5532C79.57 43.5612 79.689 43.6172 79.7766 43.7101C79.8641 43.8029 79.9137 43.9258 79.9154 44.054C79.9149 44.1248 79.8995 44.1947 79.8702 44.259C79.841 44.3234 79.7986 44.3807 79.7458 44.4273C79.693 44.4739 79.631 44.5086 79.5639 44.5292C79.4968 44.5498 79.4262 44.5558 79.3567 44.5468H75.4215C75.0752 44.5468 74.8548 44.364 74.8548 44.054C74.8548 43.744 74.9886 43.6088 75.571 43.5134C76.1535 43.418 76.3581 43.1239 76.3581 42.0905V37.8775C76.3581 37.1621 76.2085 36.9793 75.4293 36.8839C75.1067 36.8203 74.9336 36.6613 74.9336 36.3751C74.9336 36.0889 75.209 35.8505 75.6025 35.8664H75.9881C76.5971 35.8773 77.1995 35.7382 77.7432 35.461C77.8403 35.4192 77.9447 35.3976 78.0502 35.3974C78.1853 35.3973 78.3151 35.4504 78.412 35.5454C78.509 35.6403 78.5656 35.7697 78.5696 35.9061C78.5579 36.0834 78.5289 36.2592 78.483 36.4308L78.4201 36.7805ZM92.2247 43.5532C91.3873 44.3001 90.3117 44.7178 89.1946 44.7297C88.1123 44.6761 87.095 44.192 86.365 43.3832C85.6351 42.5744 85.2517 41.5067 85.2988 40.4133C85.2987 39.7816 85.4229 39.1561 85.6641 38.5733C85.9054 37.9904 86.2589 37.4618 86.704 37.0181C87.1492 36.5743 87.6773 36.2243 88.2575 35.9884C88.8377 35.7525 89.4586 35.6354 90.084 35.6438C90.835 35.6327 91.5748 35.8278 92.2247 36.2082V32.5516C92.2247 32.0826 92.0909 31.86 91.7918 31.86C91.7175 31.8676 91.6438 31.8808 91.5714 31.8997C91.4865 31.9223 91.3995 31.9357 91.3117 31.9395C91.192 31.9374 91.0779 31.8879 90.994 31.8017C90.9101 31.7155 90.8631 31.5994 90.8631 31.4784C90.8666 31.3341 90.9136 31.1943 90.9981 31.0778C91.0825 30.9613 91.2002 30.8736 91.3353 30.8266L94.4835 29.2845C94.7668 29.1414 94.7825 29.1414 94.9163 29.1414C94.9744 29.1391 95.0324 29.1491 95.0865 29.1708C95.1406 29.1924 95.1896 29.2253 95.2304 29.2672C95.2711 29.3091 95.3028 29.3592 95.3232 29.4142C95.3437 29.4692 95.3525 29.5279 95.3492 29.5866C95.3492 29.8727 95.2863 29.9761 94.8062 30.3179C94.3261 30.6597 94.3103 30.9936 94.3103 31.9077V42.5118C94.3103 43.1875 94.5701 43.5055 95.1997 43.5532C95.6483 43.5929 95.8057 43.7122 95.8057 44.054C95.8057 44.3958 95.5853 44.5627 94.7196 44.5627C94.1622 44.5754 93.6122 44.6941 93.0983 44.9125C92.9516 44.967 92.7978 44.9991 92.6418 45.0079C92.5789 45.0122 92.5157 45.0035 92.4563 44.9824C92.3968 44.9613 92.3422 44.9281 92.2958 44.885C92.2494 44.8418 92.2121 44.7896 92.1864 44.7315C92.1606 44.6733 92.1469 44.6105 92.146 44.5468C92.1541 44.3495 92.1751 44.153 92.2089 43.9586L92.2247 43.5532ZM92.2247 37.5675C91.6497 37.0303 90.9056 36.715 90.1233 36.6772C88.5492 36.6772 87.3766 38.0365 87.3766 39.8568C87.3766 41.6772 88.6122 43.3068 90.0997 43.3068C90.4164 43.2941 90.7273 43.2173 91.014 43.0807C91.3007 42.9441 91.5571 42.7507 91.7682 42.5118C91.9505 42.2783 92.0847 42.0103 92.1631 41.7237C92.2415 41.437 92.2624 41.1374 92.2247 40.8425V37.5675ZM95.8214 44.5309C95.7515 44.5398 95.6805 44.5338 95.613 44.5133C95.5455 44.4928 95.483 44.4581 95.4296 44.4117C95.3762 44.3652 95.3331 44.308 95.303 44.2436C95.2728 44.1793 95.2564 44.1093 95.2547 44.0381C95.2547 43.6963 95.3886 43.5929 95.971 43.4975C96.5534 43.4021 96.758 43.108 96.758 42.0746V37.798C96.758 37.1462 96.5849 36.9634 95.8293 36.8839C95.5066 36.8441 95.3098 36.6613 95.3098 36.391C95.3098 36.1207 95.5459 35.8902 96.0496 35.8902C96.7682 35.9295 97.4857 35.7959 98.1432 35.5007C98.2414 35.4628 98.345 35.4413 98.4501 35.4371C98.5162 35.435 98.5822 35.4461 98.6441 35.4697C98.706 35.4933 98.7627 35.529 98.8109 35.5748C98.8592 35.6206 98.8981 35.6755 98.9253 35.7364C98.9525 35.7974 98.9675 35.8631 98.9696 35.93V36.232C98.8859 36.7068 98.8489 37.1887 98.8594 37.6708V42.0905C98.8594 43.2273 98.9932 43.4101 99.8589 43.5532C99.9856 43.5612 100.105 43.6172 100.192 43.7101C100.28 43.8029 100.329 43.9258 100.331 44.054C100.333 44.1233 100.32 44.1921 100.293 44.2559C100.266 44.3196 100.225 44.3767 100.175 44.4235C100.124 44.4702 100.064 44.5054 99.9985 44.5266C99.9332 44.5479 99.8641 44.5548 99.7959 44.5468L95.8214 44.5309ZM98.9696 32.949C98.9885 33.2221 98.9254 33.4947 98.7885 33.7309C98.6516 33.9672 98.4472 34.1562 98.2021 34.2732C97.9571 34.3902 97.6827 34.4297 97.415 34.3866C97.1474 34.3435 96.8988 34.2197 96.7019 34.0315C96.5051 33.8433 96.369 33.5995 96.3117 33.3319C96.2543 33.0643 96.2783 32.7855 96.3805 32.5319C96.4826 32.2783 96.6582 32.0618 96.8843 31.9107C97.1103 31.7596 97.3763 31.681 97.6473 31.6851C97.9926 31.6722 98.3288 31.798 98.5825 32.0348C98.8362 32.2717 98.9867 32.6004 99.001 32.949H98.9696ZM108.556 42.488C108.556 43.3227 108.705 43.4657 109.657 43.6088C109.759 43.628 109.85 43.6837 109.914 43.7656C109.977 43.8475 110.009 43.95 110.004 44.054C110.004 44.3958 109.768 44.5627 109.217 44.5627C108.509 44.5211 107.803 44.6605 107.163 44.9681C107.056 45.0022 106.944 45.021 106.832 45.0238C106.702 45.0198 106.578 44.9657 106.486 44.8727C106.394 44.7796 106.34 44.6545 106.336 44.523C106.344 44.4001 106.359 44.278 106.383 44.1573C106.443 43.9372 106.472 43.7098 106.47 43.4816C105.523 44.2754 104.34 44.726 103.109 44.7614C102.44 44.8009 101.781 44.573 101.276 44.127C100.772 43.6809 100.46 43.0523 100.41 42.3767C100.434 41.921 100.587 41.4818 100.85 41.1112C101.114 40.7407 101.477 40.4543 101.897 40.2861C102.606 39.9785 103.337 39.7286 104.085 39.5389C105.99 38.9904 106.533 38.6088 106.533 37.8139C106.525 37.658 106.486 37.5053 106.418 37.3653C106.349 37.2254 106.253 37.1012 106.135 37.0005C106.016 36.8998 105.879 36.8248 105.731 36.7801C105.583 36.7354 105.427 36.722 105.274 36.7408C104.882 36.7726 104.501 36.8866 104.156 37.0755C103.81 37.2644 103.507 37.524 103.267 37.8377C102.59 38.585 102.48 38.6327 102.031 38.6327C101.791 38.646 101.555 38.5649 101.373 38.4063C101.191 38.2476 101.077 38.0239 101.055 37.7821C101.055 36.7249 103.18 35.6358 105.234 35.6358C107.289 35.6358 108.548 36.6295 108.548 38.4101L108.556 42.488ZM106.509 39.7058C105.85 40.1884 105.096 40.5219 104.298 40.6835C103.172 41.0095 102.724 41.4308 102.724 42.1462C102.741 42.3199 102.793 42.4883 102.875 42.6417C102.958 42.7951 103.07 42.9304 103.205 43.0399C103.339 43.1493 103.494 43.2306 103.66 43.2792C103.826 43.3277 104 43.3425 104.172 43.3226C104.506 43.3204 104.837 43.2487 105.143 43.112C105.449 42.9752 105.724 42.7763 105.951 42.5277C106.354 42.0248 106.548 41.3838 106.494 40.7392L106.509 39.7058ZM113.065 36.7885C113.878 36.0813 114.912 35.6872 115.985 35.6756C116.403 35.654 116.82 35.7239 117.209 35.8803C117.597 36.0367 117.948 36.276 118.236 36.5818C118.476 36.8409 118.658 37.1487 118.771 37.4845C118.883 37.8203 118.924 38.1765 118.889 38.5293V42.0905C118.889 43.2273 119 43.4101 119.881 43.5532C120.188 43.6088 120.361 43.7758 120.361 44.054C120.359 44.1251 120.343 44.1952 120.313 44.2595C120.283 44.3239 120.24 44.3811 120.186 44.4276C120.133 44.474 120.07 44.5087 120.003 44.5292C119.935 44.5497 119.864 44.5557 119.795 44.5468H115.922C115.853 44.5558 115.782 44.5498 115.715 44.5292C115.648 44.5086 115.586 44.4739 115.533 44.4273C115.48 44.3807 115.438 44.3234 115.409 44.259C115.379 44.1947 115.364 44.1248 115.363 44.054C115.363 43.7122 115.489 43.6088 116.072 43.5134C116.654 43.418 116.859 43.1239 116.859 42.0905V39.1493C116.859 37.798 116.269 37.0667 115.143 37.0667C114.858 37.0657 114.576 37.1245 114.315 37.2395C114.054 37.3546 113.819 37.5232 113.626 37.7348C113.433 37.9464 113.285 38.1963 113.193 38.4685C113.1 38.7408 113.065 39.0295 113.089 39.3163V42.0905C113.089 43.2273 113.199 43.4101 114.089 43.5532C114.215 43.5612 114.334 43.6172 114.422 43.7101C114.509 43.8029 114.559 43.9258 114.561 44.054C114.56 44.1248 114.545 44.1947 114.516 44.259C114.486 44.3234 114.444 44.3807 114.391 44.4273C114.338 44.4739 114.276 44.5086 114.209 44.5292C114.142 44.5498 114.071 44.5558 114.002 44.5468H110.106C109.752 44.5468 109.539 44.364 109.539 44.054C109.539 43.744 109.665 43.6088 110.256 43.5134C110.846 43.418 111.043 43.1239 111.043 42.0905V37.8775C111.043 37.1621 110.893 36.9793 110.114 36.8839C109.783 36.8203 109.61 36.6613 109.61 36.3751C109.61 36.0889 109.894 35.8505 110.287 35.8664H110.673C111.282 35.8773 111.884 35.7382 112.428 35.461C112.525 35.4192 112.629 35.3976 112.735 35.3974C112.87 35.3973 113 35.4504 113.097 35.5454C113.194 35.6403 113.25 35.7697 113.254 35.9061C113.242 36.0834 113.214 36.2592 113.168 36.4308L113.065 36.7885ZM136.322 32.0826C136.383 32.171 136.413 32.2771 136.409 32.3847C136.409 32.7344 136.196 32.8696 135.244 33.1796C132.686 34.1335 131.175 35.4292 130.608 37.1541C133.45 37.1939 134.441 38.108 135.008 41.1923C135.393 42.8298 135.795 43.3783 136.739 43.4816C137.125 43.5452 137.322 43.7281 137.322 44.0063C137.322 44.2845 137.062 44.5389 136.606 44.5389H134.134C133.898 44.5709 133.657 44.5385 133.437 44.4448C133.217 44.3512 133.025 44.1998 132.883 44.0063C132.623 43.6406 132.623 43.6009 132.537 41.9395C132.379 39.4037 131.75 38.5293 129.916 38.5293C129.459 38.5293 129.333 38.4339 129.176 38.0842V41.8203C129.176 42.6152 129.176 42.8298 129.349 43.0524C129.522 43.2749 129.695 43.3783 130.388 43.4816C130.516 43.4914 130.636 43.5488 130.725 43.6428C130.814 43.7368 130.865 43.8606 130.868 43.9904C130.868 44.3322 130.632 44.5389 130.238 44.5389H125.563C125.17 44.5389 124.934 44.3322 124.934 43.9904C124.934 43.6486 125.083 43.5214 125.721 43.4419C126.508 43.3386 126.634 43.0762 126.634 41.8521V33.7201C126.634 32.9252 126.634 32.7026 126.461 32.48C126.288 32.2575 126.114 32.1541 125.422 32.0508C125.294 32.0429 125.174 31.9872 125.086 31.8945C124.997 31.8018 124.945 31.6789 124.942 31.55C124.942 31.2002 125.178 31.0015 125.571 31.0015H130.199C130.593 31.0015 130.829 31.2002 130.829 31.55C130.829 31.8997 130.679 32.0111 130.042 32.0905C129.255 32.1939 129.129 32.4562 129.129 33.7201V37.3211C129.474 35.6942 130.317 34.2178 131.537 33.1001C132.899 31.7646 134.433 30.8107 135.189 30.8107C135.472 30.8107 135.645 30.93 135.842 31.2559L136.322 32.0826ZM136.944 44.5389C136.874 44.5479 136.804 44.5418 136.737 44.5212C136.67 44.5006 136.608 44.4659 136.555 44.4193C136.502 44.3728 136.46 44.3154 136.43 44.2511C136.401 44.1867 136.386 44.1168 136.385 44.046C136.385 43.7042 136.511 43.6009 137.101 43.5055C137.692 43.4101 137.888 43.116 137.888 42.0826V37.798C137.888 37.1462 137.715 36.9634 136.96 36.8839C136.629 36.8441 136.44 36.6613 136.44 36.391C136.44 36.1207 136.676 35.8902 137.172 35.8902C137.893 35.9295 138.613 35.796 139.274 35.5007C139.369 35.463 139.47 35.4415 139.573 35.4371C139.639 35.4339 139.705 35.4442 139.768 35.4675C139.83 35.4907 139.887 35.5264 139.936 35.5723C139.984 35.6183 140.023 35.6737 140.05 35.7351C140.077 35.7966 140.091 35.8628 140.092 35.93V36.232C140.008 36.7068 139.971 37.1887 139.982 37.6708V42.0905C139.982 43.2273 140.108 43.4101 140.974 43.5532C141.102 43.5592 141.223 43.6144 141.312 43.7075C141.401 43.8005 141.452 43.9245 141.454 44.054C141.455 44.124 141.442 44.1936 141.415 44.258C141.387 44.3224 141.346 44.38 141.295 44.4268C141.243 44.4736 141.182 44.5086 141.116 44.5293C141.049 44.5501 140.979 44.556 140.911 44.5468L136.944 44.5389ZM140.092 32.957C140.111 33.2301 140.048 33.5026 139.911 33.7389C139.774 33.9752 139.57 34.1642 139.325 34.2812C139.08 34.3982 138.805 34.4377 138.538 34.3945C138.27 34.3514 138.021 34.2277 137.824 34.0395C137.628 33.8513 137.492 33.6074 137.434 33.3398C137.377 33.0723 137.401 32.7935 137.503 32.5399C137.605 32.2863 137.781 32.0698 138.007 31.9187C138.233 31.7676 138.499 31.689 138.77 31.6931C139.115 31.678 139.452 31.8017 139.707 32.0371C139.963 32.2724 140.115 32.6004 140.131 32.949L140.092 32.957ZM145.082 42.0905C145.082 43.267 145.208 43.4101 146.247 43.5532C146.375 43.5573 146.498 43.6119 146.587 43.7053C146.677 43.7988 146.727 43.9239 146.727 44.054C146.729 44.124 146.715 44.1936 146.688 44.258C146.66 44.3224 146.619 44.38 146.568 44.4268C146.516 44.4736 146.455 44.5086 146.389 44.5293C146.322 44.5501 146.253 44.556 146.184 44.5468H142.154C142.085 44.5558 142.014 44.5498 141.947 44.5292C141.88 44.5086 141.818 44.4739 141.765 44.4273C141.712 44.3807 141.67 44.3234 141.641 44.259C141.611 44.1947 141.596 44.1248 141.595 44.054C141.595 43.7122 141.721 43.6088 142.312 43.5134C142.902 43.418 143.043 43.1478 143.043 42.0905V37.8696C143.043 37.1382 142.894 36.9952 142.005 36.9793C141.509 36.9793 141.273 36.7964 141.273 36.4308C141.273 36.0651 141.422 35.9618 141.879 35.7789C142.775 35.4417 143.52 34.7861 143.972 33.9347C144.04 33.8476 144.126 33.7768 144.224 33.7273C144.322 33.6778 144.429 33.6509 144.539 33.6486C144.909 33.6486 145.082 33.8553 145.082 34.2766V35.8664H146.554C147.073 35.8664 147.262 36.0094 147.262 36.391V36.6613C147.274 36.7242 147.272 36.7891 147.255 36.851C147.239 36.9129 147.208 36.9702 147.167 37.0185C147.125 37.0668 147.073 37.1049 147.014 37.1297C146.956 37.1546 146.892 37.1657 146.829 37.1621C146.729 37.1567 146.629 37.1434 146.53 37.1223C146.232 37.039 145.926 36.991 145.617 36.9793H145.082V42.0905ZM149.379 39.515C149.379 41.5659 150.898 43.3068 152.693 43.3068C153.304 43.2902 153.897 43.0941 154.4 42.7424C154.684 42.5595 154.77 42.5198 154.92 42.5198C155.024 42.5176 155.124 42.5561 155.201 42.6272C155.277 42.6984 155.323 42.7966 155.329 42.9013C155.329 43.6963 153.275 44.7455 151.717 44.7455C150.571 44.7583 149.467 44.3137 148.644 43.5082C147.822 42.7028 147.348 41.6019 147.325 40.4451C147.334 39.7976 147.471 39.1585 147.729 38.5657C147.987 37.9728 148.36 37.4382 148.826 36.9935C149.292 36.5488 149.841 36.203 150.442 35.9766C151.043 35.7502 151.682 35.6479 152.323 35.6756C154.015 35.6756 155.243 36.3433 155.243 37.2654C155.232 37.5156 155.125 37.7517 154.944 37.9228C154.763 38.0938 154.522 38.186 154.274 38.1796C153.857 38.1796 153.771 38.1398 153.015 37.488C152.578 37.0986 152.023 36.8714 151.441 36.8441C150.292 36.8441 149.379 37.9729 149.379 39.4991V39.515ZM158.705 36.8759C159.496 36.1216 160.538 35.6958 161.625 35.6835C163.404 35.6835 164.553 36.7328 164.553 38.4021V42.0905C164.553 43.2273 164.655 43.4101 165.545 43.5532C165.614 43.553 165.682 43.5673 165.745 43.5952C165.808 43.6231 165.865 43.6639 165.911 43.7152C165.958 43.7664 165.993 43.827 166.016 43.8928C166.038 43.9587 166.046 44.0286 166.04 44.0979C166.034 44.1672 166.014 44.2345 165.981 44.2954C165.947 44.3564 165.902 44.4097 165.847 44.4519C165.792 44.4942 165.73 44.5244 165.663 44.5408C165.596 44.5571 165.526 44.5592 165.458 44.5468H161.586C161.516 44.5557 161.445 44.5497 161.378 44.5292C161.31 44.5087 161.248 44.474 161.194 44.4276C161.141 44.3811 161.098 44.3239 161.068 44.2595C161.037 44.1952 161.021 44.1251 161.019 44.054C161.019 43.7122 161.153 43.6088 161.736 43.5134C162.318 43.418 162.523 43.1239 162.523 42.0905V39.1096C162.523 37.7901 161.917 37.0826 160.791 37.0826C159.54 37.0826 158.737 37.9888 158.737 39.4117V42.0905C158.737 43.2273 158.847 43.4101 159.736 43.5532C159.863 43.5612 159.982 43.6172 160.07 43.7101C160.157 43.8029 160.207 43.9258 160.209 44.054C160.208 44.1248 160.193 44.1947 160.163 44.259C160.134 44.3234 160.092 44.3807 160.039 44.4273C159.986 44.4739 159.924 44.5086 159.857 44.5292C159.79 44.5498 159.719 44.5558 159.65 44.5468H155.77C155.7 44.5558 155.63 44.5498 155.563 44.5292C155.495 44.5086 155.434 44.4739 155.381 44.4273C155.328 44.3807 155.285 44.3234 155.256 44.259C155.227 44.1947 155.212 44.1248 155.211 44.054C155.211 43.7122 155.337 43.6088 155.927 43.5134C156.517 43.418 156.714 43.1239 156.714 42.0905V32.5516C156.714 32.0428 156.58 31.86 156.281 31.86H155.998C155.888 31.86 155.801 31.8997 155.738 31.8997C155.627 31.8917 155.523 31.8413 155.447 31.7586C155.371 31.676 155.329 31.5674 155.329 31.4546C155.329 31.1684 155.455 31.0094 155.825 30.8266L159.028 29.2368C159.123 29.1713 159.236 29.1354 159.351 29.1335C159.41 29.1302 159.47 29.1393 159.526 29.1603C159.581 29.1813 159.632 29.2137 159.675 29.2555C159.718 29.2973 159.752 29.3475 159.775 29.4031C159.797 29.4587 159.808 29.5185 159.807 29.5786C159.807 29.8886 159.807 29.9443 159.162 30.3735C158.855 30.62 158.768 30.9618 158.768 31.8123L158.705 36.8759ZM169.653 40.7312C168.748 41.0969 168.465 41.3831 168.465 41.8839C168.465 42.639 169.441 43.3068 170.495 43.3068C171.305 43.262 172.085 42.9864 172.746 42.5118C172.967 42.3688 173.029 42.329 173.179 42.329C173.233 42.3247 173.287 42.3314 173.339 42.3489C173.39 42.3663 173.437 42.3941 173.478 42.4305C173.518 42.4668 173.551 42.5111 173.574 42.5606C173.597 42.6101 173.61 42.6639 173.612 42.7185C173.612 43.0365 173.226 43.5134 172.557 43.9347C171.753 44.4471 170.824 44.7225 169.873 44.7297C169.307 44.7331 168.746 44.6214 168.224 44.4013C167.702 44.1812 167.228 43.8571 166.833 43.4484C166.437 43.0397 166.126 42.5548 165.92 42.0224C165.714 41.4901 165.616 40.9212 165.631 40.3497C165.618 39.735 165.726 39.1239 165.952 38.5527C166.177 37.9815 166.513 37.4619 166.942 37.025C167.37 36.588 167.881 36.2427 168.444 36.0095C169.007 35.7763 169.611 35.66 170.22 35.6677C171.991 35.6677 173.439 36.7964 173.439 38.2034C173.439 38.887 173.116 39.2925 172.274 39.6422L169.653 40.7312ZM170.44 39.213C171.109 38.9268 171.306 38.7201 171.306 38.2591C171.28 37.8556 171.103 37.4773 170.81 37.2011C170.518 36.9249 170.132 36.7717 169.732 36.7726C168.583 36.7726 167.741 37.8298 167.741 39.2686C167.731 39.7226 167.79 40.1755 167.914 40.612C168.103 40.2622 168.26 40.143 168.866 39.8966L170.44 39.213ZM177.059 36.8282C177.872 36.1211 178.906 35.7269 179.979 35.7153C180.397 35.6938 180.814 35.7636 181.202 35.92C181.591 36.0764 181.941 36.3157 182.23 36.6215C182.469 36.8807 182.652 37.1884 182.764 37.5242C182.877 37.86 182.917 38.2162 182.883 38.5691V42.0905C182.883 43.2273 182.993 43.4101 183.875 43.5532C184.182 43.6088 184.355 43.7758 184.355 44.054C184.353 44.1251 184.337 44.1952 184.307 44.2595C184.277 44.3239 184.233 44.3811 184.18 44.4276C184.127 44.474 184.064 44.5087 183.997 44.5292C183.929 44.5497 183.858 44.5557 183.788 44.5468H179.916C179.846 44.5558 179.776 44.5498 179.709 44.5292C179.642 44.5086 179.58 44.4739 179.527 44.4273C179.474 44.3807 179.432 44.3234 179.402 44.259C179.373 44.1947 179.358 44.1248 179.357 44.054C179.357 43.7122 179.483 43.6088 180.066 43.5134C180.648 43.418 180.853 43.1239 180.853 42.0905V39.1493C180.853 37.798 180.262 37.0667 179.137 37.0667C178.852 37.0657 178.57 37.1245 178.309 37.2395C178.047 37.3546 177.813 37.5232 177.62 37.7348C177.426 37.9464 177.279 38.1963 177.186 38.4685C177.094 38.7408 177.059 39.0295 177.083 39.3163V42.0905C177.083 43.2273 177.193 43.4101 178.082 43.5532C178.209 43.5612 178.328 43.6172 178.416 43.7101C178.503 43.8029 178.553 43.9258 178.554 44.054C178.554 44.1248 178.538 44.1947 178.509 44.259C178.48 44.3234 178.438 44.3807 178.385 44.4273C178.332 44.4739 178.27 44.5086 178.203 44.5292C178.136 44.5498 178.065 44.5558 177.996 44.5468H174.06C173.714 44.5468 173.494 44.364 173.494 44.054C173.494 43.744 173.628 43.6088 174.21 43.5134C174.792 43.418 174.997 43.1239 174.997 42.0905V37.8775C174.997 37.1621 174.848 36.9793 174.068 36.8839C173.746 36.8203 173.573 36.6613 173.573 36.3751C173.573 36.0889 173.848 35.8505 174.242 35.8664H174.627C175.236 35.8773 175.839 35.7382 176.382 35.461C176.479 35.4192 176.584 35.3976 176.689 35.3974C176.824 35.3973 176.954 35.4504 177.051 35.5454C177.148 35.6403 177.205 35.7697 177.209 35.9061C177.197 36.0834 177.168 36.2592 177.122 36.4308L177.059 36.8282Z" fill="white"/>
<path d="M194.106 35.4771V38.4898H192.579V37.0192H190.958V39.3721H253V44.8173H248.325V41.8046H249.86V43.2751H251.473V40.9222H189.431V35.4771H194.106Z" fill="white"/>
<path d="M58.8938 35.4771V38.4898H60.4285V37.0192H62.0419V39.3721H0V44.8173H4.67498V41.8046H3.14814V43.2751H1.52685V40.9222H63.5687V35.4771H58.8938Z" fill="white"/>
</g>
<defs>
<clipPath id="clip0_70_1438">
<rect width="253" height="45" fill="white"/>
</clipPath>
</defs>
</svg>
